#N canvas 874 91 476 464 10;
#X obj -93 -206 line~;
#X obj -43 -43 dac~;
#X obj 184 -299 loadbang;
#X msg 184 -205 \; pd dsp 1;
#X obj 184 -265 del 200;
#X obj -113 -301 r osc_l_frequency;
#X obj 9 -300 r osc_r_frequency;
#X floatatom 40 -258 5 0 0 0 - - -;
#X floatatom -82 -252 5 0 0 0 - - -;
#X text 147 -241 setup: turn on dsp;
#X obj 23 -205 line~;
#X obj -93 -170 osc~;
#X obj 23 -171 osc~;
#X obj -93 -102 *~ 0.5;
#X obj 23 -102 *~ 0.5;
#X connect 0 0 11 0;
#X connect 2 0 4 0;
#X connect 4 0 3 0;
#X connect 5 0 0 0;
#X connect 6 0 10 0;
#X connect 7 0 10 0;
#X connect 8 0 0 0;
#X connect 10 0 12 0;
#X connect 11 0 13 0;
#X connect 12 0 14 0;
#X connect 13 0 1 0;
#X connect 14 0 1 1;
